<?xml version="1.0" encoding="utf-8"?>
<svg version="1.1" id="Layer_1"
xmlns="http://www.w3.org/2000/svg"
xmlns:xlink="http://www.w3.org/1999/xlink"
width="119px" height="119px"
xml:space="preserve">
<g id="PathID_1" transform="matrix(1, 0, 0, 1, 24, 24)" opacity="1">
<path style="fill:#FFFFFF;fill-opacity:1" d="M-24 -24L24 -24L24 24L-24 24L-24 -24" />
</g>
<g id="PathID_2" transform="matrix(1, 0, 0, 1, 24, 24)" opacity="1">
</g>
<g id="PathID_3" transform="matrix(1, 0, 0, 1, 94, 24)" opacity="1">
<path style="fill:#FFFFFF;fill-opacity:1" d="M-24 -24L24 -24L24 24L-24 24L-24 -24" />
</g>
<g id="PathID_4" transform="matrix(1, 0, 0, 1, 94, 24)" opacity="1">
</g>
<g id="PathID_5" transform="matrix(1, 0, 0, 1, 24, 94)" opacity="1">
<path style="fill:#FFFFFF;fill-opacity:1" d="M-24 -24L24 -24L24 24L-24 24L-24 -24" />
</g>
<g id="PathID_6" transform="matrix(1, 0, 0, 1, 24, 94)" opacity="1">
</g>
</svg>
