<?xml version="1.0" encoding="utf-8"?>
<svg version="1.1" id="Layer_1"
xmlns="http://www.w3.org/2000/svg"
xmlns:xlink="http://www.w3.org/1999/xlink"
width="19px" height="17px"
xml:space="preserve">
<g id="PathID_37" transform="matrix(-0.0171097, 1.49578e-009, 0, 0.0171097, 8.25, -0.05)" opacity="1">
<path style="fill:#878787;fill-opacity:1" d="M111.05 113.75Q107.55 112.25 105 109.7Q102.4 107.1 100.9 103.6Q99.4 100.15 99.45 96.2L99.45 43.55L99.45 23.85Q99.45 19.85 100.95 16.4Q102.45 12.95 105 10.35Q107.6 7.75 111.05 6.25Q114.55 4.8 118.5 4.8L125.4 4.8Q129.35 4.8 132.8 6.3Q136.25 7.8 138.85 10.35Q141.45 12.95 142.95 16.4Q144.45 19.9 144.45 23.85L144.45 43.55L144.45 96.25Q144.45 100.15 142.95 103.65Q141.45 107.1 138.85 109.7Q136.25 112.3 132.8 113.8Q129.3 115.3 125.4 115.3L118.5 115.3Q114.5 115.3 111.05 113.75" />
</g>
<g id="PathID_38" transform="matrix(-0.0171097, 1.49578e-009, 0, 0.0171097, 8.25, -0.05)" opacity="1">
</g>
<g id="PathID_39" transform="matrix(-0.0171097, 1.49578e-009, 0, 0.0171097, 8.25, -0.05)" opacity="1">
<path style="fill:#878787;fill-opacity:1" d="M355.9 113.35Q352.4 111.85 349.85 109.25Q347.25 106.65 345.75 103.2Q344.25 99.7 344.3 95.8L344.3 38.6L344.3 23.45Q344.3 19.45 345.8 16Q347.3 12.55 349.85 9.95Q352.45 7.35 355.9 5.85Q359.4 4.4 363.35 4.4L370.25 4.4Q374.2 4.4 377.65 5.9Q381.1 7.4 383.7 9.95Q386.3 12.55 387.8 16Q389.3 19.5 389.3 23.45L389.3 38.6L389.3 95.8Q389.3 99.75 387.8 103.2Q386.3 106.65 383.7 109.25Q381.1 111.85 377.65 113.35Q374.15 114.85 370.25 114.85L363.35 114.85Q359.35 114.85 355.9 113.35" />
</g>
<g id="PathID_40" transform="matrix(-0.0171097, 1.49578e-009, 0, 0.0171097, 8.25, -0.05)" opacity="1">
</g>
<g id="PathID_41" transform="matrix(-0.0171097, 1.49578e-009, 0, 0.0171097, 8.25, -0.05)" opacity="1">
<path style="fill:#878787;fill-opacity:1" d="M465.95 45.95Q471.6 48.4 475.8 52.6Q480 56.8 482.45 62.45Q484.85 68.1 484.85 74.55L484.85 449.55Q484.85 455.95 482.4 461.6Q479.95 467.25 475.75 471.45Q471.55 475.65 465.9 478.1Q460.25 480.55 453.85 480.55L31 480.55Q24.55 480.55 18.9 478.1Q13.25 475.65 9.05 471.45Q4.85 467.25 2.4 461.6Q0 455.95 0 449.55L0 74.55Q0 68.1 2.4 62.45Q4.85 56.8 9.05 52.6Q13.25 48.4 18.9 45.95Q24.55 43.55 31 43.55L83.95 43.55L83.95 96.2Q83.95 103.35 86.65 109.65Q89.4 115.95 94.1 120.65Q98.8 125.35 105.1 128.05Q111.4 130.8 118.55 130.8L125.45 130.8Q132.6 130.8 138.9 128.05Q145.2 125.3 149.9 120.6Q154.6 115.9 157.3 109.6Q160.05 103.3 160.05 96.2L160.05 43.55L328.8 43.55L328.8 95.75Q328.8 102.9 331.5 109.2Q334.25 115.5 338.95 120.2Q343.65 124.9 349.95 127.6Q356.25 130.35 363.4 130.35L370.3 130.35Q377.45 130.35 383.75 128.4Q390.05 126.45 394.75 122.65Q399.45 118.9 402.15 113.4Q404.9 107.85 404.9 100.75L404.9 43.55L453.9 43.55Q460.3 43.55 465.95 45.95M453.85 166.4L31 166.4L31 449.6L453.85 449.6L453.85 166.4" />
</g>
<g id="PathID_42" transform="matrix(-0.0171097, 1.49578e-009, 0, 0.0171097, 8.25, -0.05)" opacity="1">
</g>
<g id="PathID_43" transform="matrix(-0.0171097, 1.49578e-009, 0, 0.0171097, 8.25, -0.05)" opacity="1">
<path style="fill:#878787;fill-opacity:1" d="M256.85 261.05Q256.15 260.75 255.6 260.2Q255.05 259.65 254.75 258.95Q254.45 258.2 254.45 257.4L254.45 209.15Q254.45 208.3 254.75 207.55Q255.05 206.8 255.6 206.3Q256.15 205.75 256.85 205.45Q257.6 205.15 258.45 205.15L314.15 205.15Q314.95 205.15 315.7 205.45Q316.45 205.75 316.95 206.3Q317.5 206.85 317.8 207.55Q318.15 208.3 318.15 209.15L318.15 257.4Q318.15 258.2 317.8 258.95Q317.5 259.7 316.95 260.2Q316.4 260.75 315.7 261.05Q314.95 261.4 314.15 261.4L258.45 261.4Q257.6 261.4 256.85 261.05" />
</g>
<g id="PathID_44" transform="matrix(-0.0171097, 1.49578e-009, 0, 0.0171097, 8.25, -0.05)" opacity="1">
</g>
<g id="PathID_45" transform="matrix(-0.0171097, 1.49578e-009, 0, 0.0171097, 8.25, -0.05)" opacity="1">
<path style="fill:#878787;fill-opacity:1" d="M347.8 261.05Q347.1 260.75 346.55 260.2Q346 259.65 345.7 258.95Q345.4 258.2 345.4 257.4L345.4 209.15Q345.4 208.3 345.7 207.55Q346 206.8 346.55 206.3Q347.1 205.75 347.8 205.45Q348.55 205.15 349.4 205.15L405.1 205.15Q405.9 205.15 406.65 205.45Q407.4 205.75 407.9 206.3Q408.45 206.85 408.75 207.55Q409.1 208.3 409.1 209.15L409.1 257.4Q409.1 258.2 408.75 258.95Q408.45 259.7 407.9 260.2Q407.35 260.75 406.65 261.05Q405.9 261.4 405.1 261.4L349.4 261.4Q348.55 261.4 347.8 261.05" />
</g>
<g id="PathID_46" transform="matrix(-0.0171097, 1.49578e-009, 0, 0.0171097, 8.25, -0.05)" opacity="1">
</g>
<g id="PathID_47" transform="matrix(-0.0171097, 1.49578e-009, 0, 0.0171097, 8.25, -0.05)" opacity="1">
<path style="fill:#878787;fill-opacity:1" d="M75 340.05Q74.3 339.75 73.75 339.2Q73.2 338.65 72.9 337.95Q72.6 337.2 72.6 336.4L72.6 288.15Q72.6 287.3 72.9 286.55Q73.2 285.8 73.75 285.3Q74.3 284.75 75 284.45Q75.75 284.15 76.6 284.15L132.3 284.15Q133.1 284.15 133.85 284.45Q134.6 284.75 135.1 285.3Q135.65 285.85 135.95 286.55Q136.3 287.3 136.3 288.15L136.3 336.4Q136.3 337.2 135.95 337.95Q135.65 338.7 135.1 339.2Q134.55 339.75 133.85 340.05Q133.1 340.4 132.3 340.4L76.6 340.4Q75.75 340.4 75 340.05" />
</g>
<g id="PathID_48" transform="matrix(-0.0171097, 1.49578e-009, 0, 0.0171097, 8.25, -0.05)" opacity="1">
</g>
<g id="PathID_49" transform="matrix(-0.0171097, 1.49578e-009, 0, 0.0171097, 8.25, -0.05)" opacity="1">
<path style="fill:#878787;fill-opacity:1" d="M165.95 340.05Q165.2 339.75 164.7 339.2Q164.15 338.65 163.85 337.95Q163.55 337.2 163.55 336.4L163.55 288.15Q163.55 287.3 163.85 286.55Q164.15 285.8 164.7 285.3Q165.25 284.75 165.95 284.45Q166.7 284.15 167.55 284.15L223.25 284.15Q224.05 284.15 224.8 284.45Q225.55 284.75 226.05 285.3Q226.6 285.85 226.9 286.55Q227.25 287.3 227.25 288.15L227.25 336.4Q227.25 337.2 226.9 337.95Q226.6 338.7 226.05 339.2Q225.5 339.75 224.8 340.05Q224.05 340.4 223.25 340.4L167.55 340.4Q166.7 340.4 165.95 340.05" />
</g>
<g id="PathID_50" transform="matrix(-0.0171097, 1.49578e-009, 0, 0.0171097, 8.25, -0.05)" opacity="1">
</g>
<g id="PathID_51" transform="matrix(-0.0171097, 1.49578e-009, 0, 0.0171097, 8.25, -0.05)" opacity="1">
<path style="fill:#878787;fill-opacity:1" d="M256.85 340.05Q256.15 339.75 255.6 339.2Q255.05 338.65 254.75 337.95Q254.45 337.2 254.45 336.4L254.45 288.15Q254.45 287.3 254.75 286.55Q255.05 285.8 255.6 285.3Q256.15 284.75 256.85 284.45Q257.6 284.15 258.45 284.15L314.15 284.15Q314.95 284.15 315.7 284.45Q316.45 284.75 316.95 285.3Q317.5 285.85 317.8 286.55Q318.15 287.3 318.15 288.15L318.15 336.4Q318.15 337.2 317.8 337.95Q317.5 338.7 316.95 339.2Q316.4 339.75 315.7 340.05Q314.95 340.4 314.15 340.4L258.45 340.4Q257.6 340.4 256.85 340.05" />
</g>
<g id="PathID_52" transform="matrix(-0.0171097, 1.49578e-009, 0, 0.0171097, 8.25, -0.05)" opacity="1">
</g>
<g id="PathID_53" transform="matrix(-0.0171097, 1.49578e-009, 0, 0.0171097, 8.25, -0.05)" opacity="1">
<path style="fill:#878787;fill-opacity:1" d="M347.8 340.05Q347.1 339.75 346.55 339.2Q346 338.65 345.7 337.95Q345.4 337.2 345.4 336.4L345.4 288.15Q345.4 287.3 345.7 286.55Q346 285.8 346.55 285.3Q347.1 284.75 347.8 284.45Q348.55 284.15 349.4 284.15L405.1 284.15Q405.9 284.15 406.65 284.45Q407.4 284.75 407.9 285.3Q408.45 285.85 408.75 286.55Q409.1 287.3 409.1 288.15L409.1 336.4Q409.1 337.2 408.75 337.95Q408.45 338.7 407.9 339.2Q407.35 339.75 406.65 340.05Q405.9 340.4 405.1 340.4L349.4 340.4Q348.55 340.4 347.8 340.05" />
</g>
<g id="PathID_54" transform="matrix(-0.0171097, 1.49578e-009, 0, 0.0171097, 8.25, -0.05)" opacity="1">
</g>
<g id="PathID_55" transform="matrix(-0.0171097, 1.49578e-009, 0, 0.0171097, 8.25, -0.05)" opacity="1">
<path style="fill:#878787;fill-opacity:1" d="M133.85 363.45Q134.55 363.75 135.1 364.3Q135.65 364.8 135.95 365.55Q136.3 366.3 136.3 367.15L136.3 415.4Q136.3 416.2 135.95 416.95Q135.65 417.7 135.1 418.2Q134.55 418.75 133.85 419.05Q133.1 419.4 132.3 419.4L76.6 419.4Q75.75 419.4 75 419.05Q74.25 418.75 73.75 418.2Q73.2 417.65 72.9 416.95Q72.6 416.2 72.6 415.4L72.6 367.15Q72.6 366.3 72.9 365.55Q73.2 364.8 73.75 364.3Q74.3 363.75 75 363.45Q75.75 363.15 76.6 363.15L132.3 363.15Q133.1 363.15 133.85 363.45" />
</g>
<g id="PathID_56" transform="matrix(-0.0171097, 1.49578e-009, 0, 0.0171097, 8.25, -0.05)" opacity="1">
</g>
<g id="PathID_57" transform="matrix(-0.0171097, 1.49578e-009, 0, 0.0171097, 8.25, -0.05)" opacity="1">
<path style="fill:#878787;fill-opacity:1" d="M224.8 363.45Q225.5 363.75 226.05 364.3Q226.6 364.8 226.9 365.55Q227.25 366.3 227.25 367.15L227.25 415.4Q227.25 416.2 226.9 416.95Q226.6 417.7 226.05 418.2Q225.5 418.75 224.8 419.05Q224.05 419.4 223.25 419.4L167.55 419.4Q166.7 419.4 165.95 419.05Q165.2 418.75 164.7 418.2Q164.15 417.65 163.85 416.95Q163.55 416.2 163.55 415.4L163.55 367.15Q163.55 366.3 163.85 365.55Q164.15 364.8 164.7 364.3Q165.25 363.75 165.95 363.45Q166.7 363.15 167.55 363.15L223.25 363.15Q224.05 363.15 224.8 363.45" />
</g>
<g id="PathID_58" transform="matrix(-0.0171097, 1.49578e-009, 0, 0.0171097, 8.25, -0.05)" opacity="1">
</g>
<g id="PathID_59" transform="matrix(-0.0171097, 1.49578e-009, 0, 0.0171097, 8.25, -0.05)" opacity="1">
<path style="fill:#878787;fill-opacity:1" d="M315.75 363.45Q316.45 363.75 317 364.3Q317.55 364.8 317.85 365.55Q318.2 366.3 318.2 367.15L318.2 415.4Q318.2 416.2 317.85 416.95Q317.55 417.7 317 418.2Q316.45 418.75 315.75 419.05Q315 419.4 314.2 419.4L258.5 419.4Q257.65 419.4 256.9 419.05Q256.15 418.75 255.65 418.2Q255.1 417.65 254.8 416.95Q254.5 416.2 254.5 415.4L254.5 367.15Q254.5 366.3 254.8 365.55Q255.1 364.8 255.65 364.3Q256.2 363.75 256.9 363.45Q257.65 363.15 258.5 363.15L314.2 363.15Q315 363.15 315.75 363.45" />
</g>
<g id="PathID_60" transform="matrix(-0.0171097, 1.49578e-009, 0, 0.0171097, 8.25, -0.05)" opacity="1">
</g>
<g id="PathID_61" transform="matrix(-0.0171097, 1.49578e-009, 0, 0.0171097, 8.25, -0.05)" opacity="1">
<path style="fill:#878787;fill-opacity:1" d="M406.7 363.45Q407.4 363.75 407.95 364.3Q408.5 364.8 408.8 365.55Q409.15 366.3 409.15 367.15L409.15 415.4Q409.15 416.2 408.8 416.95Q408.5 417.7 407.95 418.2Q407.4 418.75 406.7 419.05Q405.95 419.4 405.15 419.4L349.45 419.4Q348.6 419.4 347.85 419.05Q347.1 418.75 346.6 418.2Q346.05 417.65 345.75 416.95Q345.45 416.2 345.45 415.4L345.45 367.15Q345.45 366.3 345.75 365.55Q346.05 364.8 346.6 364.3Q347.15 363.75 347.85 363.45Q348.6 363.15 349.45 363.15L405.15 363.15Q405.95 363.15 406.7 363.45" />
</g>
<g id="PathID_62" transform="matrix(-0.0171097, 1.49578e-009, 0, 0.0171097, 8.25, -0.05)" opacity="1">
</g>
<g id="PathID_63" transform="matrix(0.0156929, 0, 0, 0.0156929, 7.55, 9.05)" opacity="1">
<path style="fill:#FFFFFF;fill-opacity:1" d="M499.5 472.9Q501 476.65 501 480.6Q501 484.5 499.5 488.25Q498 492 495 495Q492 498 488.2 499.5Q484.45 501 480.55 501Q476.6 501 472.85 499.5Q469.1 498 466.1 495L348.3 377.3Q334.95 388.25 319.8 396.9Q304.7 405.55 288.15 411.6Q271.65 417.6 253.85 420.8Q236.1 424 217.5 424Q174.7 424 137.05 407.75Q99.45 391.5 71.45 363.5Q43.4 335.45 27.2 297.85Q11 260.25 11 217.5Q11 174.75 27.2 137.1Q43.4 99.5 71.45 71.5Q99.45 43.45 137.05 27.2Q174.7 11 217.5 11Q260.25 11 297.85 27.2Q335.45 43.45 363.5 71.5Q391.5 99.5 407.75 137.1Q424 174.75 424 217.5Q424 236.1 420.75 253.9Q417.55 271.65 411.55 288.2Q405.5 304.75 396.8 319.9Q388.15 335.05 377.2 348.4L495 466.2Q498 469.15 499.5 472.9M281.8 369.85Q311.95 356.85 334.45 334.4Q356.9 311.9 369.95 281.8Q383 251.7 383 217.5Q383 183.3 369.95 153.15Q356.9 123 334.45 100.55Q311.95 78.05 281.8 65Q251.7 52 217.5 52Q183.25 52 153.1 65Q122.95 78.05 100.5 100.55Q78 123 65 153.15Q52 183.3 52 217.5Q52 251.7 65 281.8Q78 311.9 100.5 334.4Q122.95 356.85 153.1 369.85Q183.25 382.9 217.5 382.9Q251.7 382.9 281.8 369.85" />
</g>
<g id="PathID_64" transform="matrix(0.0156929, 0, 0, 0.0156929, 7.55, 9.05)" opacity="1">
</g>
<g id="PathID_65" transform="matrix(0.0242846, 0, 0, 0.0242846, 0.65, 9.75)" opacity="1">
<path style="fill:#878787;fill-opacity:1" d="M189.35 60Q189.35 72.4 184.6 83.3Q179.9 94.25 171.75 102.4Q163.6 110.55 152.7 115.25Q141.75 120 129.35 120Q116.9 120 105.95 115.25Q95.05 110.55 86.9 102.4Q78.75 94.25 74.05 83.3Q69.35 72.4 69.35 60Q69.35 47.55 74.05 36.6Q78.75 25.7 86.9 17.55Q95.05 9.4 105.95 4.7Q116.9 0 129.35 0Q141.75 0 152.7 4.7Q163.6 9.4 171.75 17.55Q179.9 25.7 184.6 36.6Q189.35 47.55 189.35 60" />
</g>
<g id="PathID_66" transform="matrix(0.0242846, 0, 0, 0.0242846, 0.65, 9.75)" opacity="1">
</g>
<g id="PathID_67" transform="matrix(0.0242846, 0, 0, 0.0242846, 0.65, 9.75)" opacity="1">
<path style="fill:#878787;fill-opacity:1" d="M171.65 158.5Q191.45 167.05 206.2 181.8Q221 196.55 229.55 216.4Q238.1 236.2 238.1 258.75L20.6 258.75Q20.6 236.2 29.1 216.4Q37.65 196.55 52.45 181.8Q67.2 167.05 87 158.5Q106.8 150 129.35 150Q151.85 150 171.65 158.5" />
</g>
<g id="PathID_68" transform="matrix(0.0242846, 0, 0, 0.0242846, 0.65, 9.75)" opacity="1">
</g>
<g id="PathID_69" transform="matrix(0.0166792, 0, 0, 0.0166792, 9.55, -0.25)" opacity="1">
<path style="fill:#878787;fill-opacity:1" d="M431.8 317.85Q431.15 321.35 429.85 324.55Q428.5 327.8 426.5 330.7Q424.5 333.65 421.85 336.3L281.7 476.75Q278.9 479.35 275.9 481.35Q272.85 483.35 269.6 484.65Q266.35 485.95 262.9 486.6Q259.4 487.3 255.75 487.3Q251.95 487.3 248.45 486.6Q244.95 485.95 241.75 484.65Q238.55 483.3 235.6 481.35Q232.7 479.35 230.1 476.75L25.95 272.3Q23.2 269.65 20.7 266.5Q18.2 263.4 15.9 259.8Q13.6 256.2 11.5 252.1Q9.4 248.05 7.55 243.5Q5.65 238.9 4.2 234.5Q2.8 230.15 1.85 225.95Q0.9 221.8 0.45 217.8Q0 213.85 0 210.1L0 91.35Q0 87.6 0.65 84.15Q1.35 80.7 2.7 77.5Q4.05 74.25 6.05 71.3Q8.1 68.35 10.85 65.65Q13.55 62.95 16.5 60.9Q19.45 58.9 22.65 57.55Q25.85 56.2 29.3 55.5Q32.8 54.85 36.5 54.85L155.3 54.85Q159.05 54.85 163.05 55.3Q167.05 55.8 171.2 56.75Q175.4 57.65 179.75 59.1Q184.1 60.5 188.7 62.4Q193.25 64.25 197.35 66.35Q201.45 68.45 205.1 70.75Q208.75 73.05 211.9 75.55Q215.1 78.1 217.8 80.8L421.95 284.65Q424.55 287.4 426.55 290.4Q428.55 293.45 429.85 296.7Q431.15 299.95 431.8 303.4Q432.5 306.9 432.5 310.6Q432.5 314.35 431.8 317.85M121.85 166.35Q123.85 163.4 125.2 160.15Q126.55 156.95 127.2 153.45Q127.9 149.95 127.9 146.2Q127.9 142.4 127.2 138.9Q126.55 135.4 125.2 132.15Q123.85 128.95 121.85 126Q119.85 123.05 117.2 120.4Q114.5 117.7 111.55 115.7Q108.6 113.7 105.4 112.35Q102.15 111 98.65 110.35Q95.15 109.7 91.4 109.7Q87.6 109.7 84.1 110.35Q80.6 111 77.35 112.35Q74.15 113.7 71.2 115.7Q68.25 117.7 65.6 120.4Q62.9 123.05 60.9 126Q58.9 128.95 57.55 132.15Q56.2 135.4 55.55 138.9Q54.9 142.4 54.9 146.2Q54.9 149.95 55.55 153.45Q56.2 157 57.55 160.2Q58.9 163.45 60.9 166.35Q62.9 169.3 65.6 172Q68.25 174.65 71.2 176.65Q74.15 178.65 77.4 180Q80.6 181.35 84.1 182Q87.6 182.7 91.4 182.7Q95.15 182.7 98.65 182Q102.15 181.35 105.4 180Q108.6 178.65 111.55 176.65Q114.5 174.65 117.2 172Q119.85 169.3 121.85 166.35" />
</g>
<g id="PathID_70" transform="matrix(0.0166792, 0, 0, 0.0166792, 9.55, -0.25)" opacity="1">
</g>
<g id="PathID_71" transform="matrix(0.0166792, 0, 0, 0.0166792, 9.55, -0.25)" opacity="1">
<path style="fill:#878787;fill-opacity:1" d="M536.2 290.4Q538.15 293.4 539.5 296.65Q540.8 299.9 541.4 303.4Q542.05 306.85 542 310.6Q542 314.35 541.3 317.85Q540.65 321.35 539.35 324.55Q538 327.75 536.05 330.7Q534.05 333.6 531.45 336.25L391.3 476.7Q388.5 479.3 385.5 481.3Q382.5 483.3 379.25 484.6Q376 485.9 372.5 486.55Q369.05 487.25 365.35 487.25Q362.75 487.25 360.4 487Q358.1 486.75 356 486.25Q353.9 485.75 352 485Q350.15 484.25 348.55 483.3Q346.9 482.3 345.15 481Q343.35 479.7 341.5 478.1Q339.6 476.5 337.6 474.6Q335.55 472.7 333.45 470.5L467.6 336.25Q470.2 333.6 472.2 330.65Q474.2 327.75 475.5 324.55Q476.8 321.3 477.45 317.85Q478.15 314.35 478.15 310.6Q478.15 306.85 477.45 303.4Q476.8 299.9 475.5 296.65Q474.15 293.4 472.2 290.4Q470.2 287.4 467.6 284.65L263.5 80.8Q260.75 78.05 257.6 75.55Q254.4 73.05 250.75 70.75Q247.15 68.45 243.05 66.35Q238.95 64.25 234.4 62.4Q229.8 60.5 225.4 59.05Q221.05 57.65 216.85 56.7Q212.7 55.75 208.7 55.3Q204.75 54.85 201 54.85L264.95 54.85Q268.7 54.85 272.7 55.3Q276.7 55.8 280.85 56.75Q285.05 57.65 289.4 59.1Q293.75 60.5 298.35 62.4Q302.9 64.25 307 66.35Q311.1 68.45 314.75 70.75Q318.4 73.05 321.55 75.55Q324.75 78.1 327.45 80.8L531.6 284.65Q534.2 287.4 536.2 290.4" />
</g>
<g id="PathID_72" transform="matrix(0.0166792, 0, 0, 0.0166792, 9.55, -0.25)" opacity="1">
</g>
</svg>
